<svg fill="none" height="913" viewBox="0 0 1920 913" width="1920" xmlns="http://www.w3.org/2000/svg" xmlns:xlink="http://www.w3.org/1999/xlink"><clipPath id="a"><path d="m0 913h913v1920h-913z" transform="matrix(0 -1 1 0 -913 913)"/></clipPath><g clip-path="url(#a)" stroke="#22c55e" stroke-linecap="round" stroke-linejoin="round" stroke-width="60"><path d="m7813.28 1248.26c0-4247.52-3443.28-7690.81-7690.802-7690.81-4247.518.01-7690.808 3443.29-7690.808 7690.81s3443.29 7690.81 7690.808 7690.81c4247.522 0 7690.812-3443.29 7690.802-7690.81z" opacity=".08"/><path d="m7201.22 1248.26c0-3909.48-3169.26-7078.74-7078.745-7078.74s-7078.745 3169.26-7078.745 7078.74c.01 3909.49 3169.26 7078.74 7078.746 7078.74 3909.484 0 7078.744-3169.25 7078.744-7078.74z" opacity=".08"/><path d="m6588.92 1248.26c0-3571.31-2895.13-6466.44-6466.441-6466.44-3571.309 0-6466.449 2895.13-6466.449 6466.44s2895.14 6466.45 6466.45 6466.45 6466.44-2895.14 6466.44-6466.45z" opacity=".08"/><path d="m5976.86 1248.26c-.01-3233.27-2621.11-5854.38-5854.384-5854.38-3233.276 0-5854.386 2621.11-5854.386 5854.38 0 3233.28 2621.11 5854.38 5854.387 5854.38 3233.273 0 5854.383-2621.1 5854.383-5854.38z" opacity=".08"/><path d="m5364.58 1248.26c0-2895.13-2346.98-5242.1-5242.106-5242.1-2895.134 0-5242.094 2346.97-5242.094 5242.1s2346.97 5242.09 5242.095 5242.09 5242.105-2346.96 5242.105-5242.09z" opacity=".08"/><path d="m4752.49 1248.26c0-2557.09-2072.92-4630.01-4630.012-4630.01-2557.098 0-4630.028 2072.92-4630.028 4630.01 0 2557.1 2072.93 4630.03 4630.029 4630.03 2557.091 0 4630.011-2072.93 4630.011-4630.03z" opacity=".08"/><path d="m4140.21 1248.26c0-2218.95-1798.82-4017.73-4017.733-4017.73-2218.947 0-4017.737 1798.78-4017.737 4017.73 0 2218.92 1798.79 4017.74 4017.737 4017.74 2218.913 0 4017.733-1798.82 4017.733-4017.74z" opacity=".08"/><path d="m3528.15 1248.26c0-1880.877-1524.76-3405.67-3405.673-3405.67-1880.917 0-3405.677 1524.794-3405.677 3405.67 0 1880.92 1524.76 3405.68 3405.677 3405.68 1880.913 0 3405.673-1524.76 3405.673-3405.68z" opacity=".08"/><path d="m2915.85 1248.26c0-1542.735-1250.63-2793.36-2793.37-2793.36s-2793.37 1250.625-2793.37 2793.36c0 1542.74 1250.63 2793.37 2793.37 2793.37s2793.37-1250.63 2793.37-2793.37z" opacity=".08"/><path d="m2303.79 1248.26c0-1204.7001-976.61-2181.307-2181.31-2181.307-1204.7.001-2181.31 976.6071-2181.31 2181.307 0 1204.7 976.61 2181.31 2181.31 2181.31s2181.31-976.61 2181.31-2181.31z" opacity=".08"/><path d="m1691.51 1248.26c0-866.555-702.477-1569.031-1569.035-1569.031-866.557 0-1569.035 702.476-1569.035 1569.031 0 866.56 702.478 1569.03 1569.035 1569.03 866.558 0 1569.035-702.47 1569.035-1569.03z" opacity=".08"/><path d="m1079.41 1248.26c0-528.518-428.411-956.933-956.934-956.933-528.522 0-956.938 428.416-956.938 956.933 0 528.53 428.416 956.94 956.938 956.94 528.523 0 956.934-428.41 956.934-956.94z" opacity=".08"/></g><path d="m.5 912.5h912v1919h-912z" stroke="#000" transform="matrix(0 -1 1 0 -912 913)"/></svg>